HIERARCHY
ROOT root
{
	OFFSET 0.000000 0.000000 0.000000
	CHANNELS 6 Xposition Yposition Zposition Zrotation Yrotation Xrotation
	JOINT lhip
	{
		OFFSET 0.058581 -0.082280 -0.017664
		CHANNELS 3 Zrotation Yrotation Xrotation
		JOINT lknee
		{
			OFFSET 0.043451 -0.386469 0.008037
			CHANNELS 3 Zrotation Yrotation Xrotation
			JOINT lankle
			{
				OFFSET -0.014790 -0.426874 -0.037428
				CHANNELS 3 Zrotation Yrotation Xrotation
				JOINT ltoe
				{
					OFFSET 0.041054 -0.060286 0.122042
					CHANNELS 3 Zrotation Yrotation Xrotation
					End Site
					{
						OFFSET 0.000000 0.000000 0.000000
					}
				}
			}
		}
	}
	JOINT rhip
	{
		OFFSET -0.060310 -0.090513 -0.013543
		CHANNELS 3 Zrotation Yrotation Xrotation
		JOINT rknee
		{
			OFFSET -0.043257 -0.383688 -0.004843
			CHANNELS 3 Zrotation Yrotation Xrotation
			JOINT rankle
			{
				OFFSET 0.019056 -0.420046 -0.034562
				CHANNELS 3 Zrotation Yrotation Xrotation
				JOINT rtoe
				{
					OFFSET -0.034840 -0.062106 0.130323
					CHANNELS 3 Zrotation Yrotation Xrotation
					End Site
					{
						OFFSET 0.000000 0.000000 0.000000
					}
				}
			}
		}
	}
	JOINT lowerback
	{
		OFFSET 0.004439 0.124404 -0.038385
		CHANNELS 3 Zrotation Yrotation Xrotation
		JOINT upperback
		{
			OFFSET 0.004488 0.137956 0.026820
			CHANNELS 3 Zrotation Yrotation Xrotation
			JOINT chest
			{
				OFFSET -0.002265 0.056032 0.002855
				CHANNELS 3 Zrotation Yrotation Xrotation
				JOINT lowerneck
				{
					OFFSET -0.013390 0.211636 -0.033468
					CHANNELS 3 Zrotation Yrotation Xrotation
					JOINT upperneck
					{
						OFFSET 0.010113 0.088937 0.050410
						CHANNELS 3 Zrotation Yrotation Xrotation
						End Site
						{
							OFFSET 0.000000 0.000000 0.000000
						}
					}
				}
				JOINT lclavicle
				{
					OFFSET 0.071702 0.114000 -0.018898
					CHANNELS 3 Zrotation Yrotation Xrotation
					JOINT lshoulder
					{
						OFFSET 0.122921 0.045205 -0.019046
						CHANNELS 3 Zrotation Yrotation Xrotation
						JOINT lelbow
						{
							OFFSET 0.255332 -0.015649 -0.022946
							CHANNELS 3 Zrotation Yrotation Xrotation
							JOINT lwrist
							{
								OFFSET 0.265709 0.012698 -0.007375
								CHANNELS 3 Zrotation Yrotation Xrotation
								End Site
								{
									OFFSET 0.000000 0.000000 0.000000
								}
							}
						}
					}
				}
				JOINT rclavicle
				{
					OFFSET -0.082954 0.112472 -0.023707
					CHANNELS 3 Zrotation Yrotation Xrotation
					JOINT rshoulder
					{
						OFFSET -0.113228 0.046853 -0.008472
						CHANNELS 3 Zrotation Yrotation Xrotation
						JOINT relbow
						{
							OFFSET -0.260127 -0.014369 -0.031269
							CHANNELS 3 Zrotation Yrotation Xrotation
							JOINT rwrist
							{
								OFFSET -0.269108 0.006794 -0.006027
								CHANNELS 3 Zrotation Yrotation Xrotation
								End Site
								{
									OFFSET 0.000000 0.000000 0.000000
								}
							}
						}
					}
				}
			}
		}
	}
}
MOTION
Frames: 11
Frame Time: 0.033333
0.607903 0.757949 0.926535 -93.589446 1.286334 100.612371 4.742404 -7.698667 -35.215538 -11.313440 -7.436473 43.174771 5.450387 15.212543 -28.861485 0.000000 -0.000000 0.000000 0.965410 4.385691 -38.828819 0.812841 -1.826157 46.758222 4.063435 -17.488812 -27.946085 0.000000 -0.000000 0.000000 -2.570849 0.523809 24.156754 3.510102 -0.592315 -5.148774 0.578590 -1.268046 9.015801 3.575367 7.086863 11.106905 4.737600 0.079669 1.636935 -8.494459 15.712490 8.605371 -35.933453 9.299960 9.787844 -24.738713 -51.879326 34.919142 7.372669 -9.832119 -15.548972 14.008443 -15.715630 3.429098 49.523466 -16.224816 12.284115 -0.517833 53.752770 15.713830 3.847891 7.669294 -10.495245 
0.615733 0.759712 0.892652 -94.206600 1.065533 101.510190 6.162330 -6.824717 -42.328212 -12.979266 -3.276829 52.512307 5.664574 14.703964 -31.913929 0.000000 -0.000000 0.000000 -0.004082 5.516918 -45.626462 0.213415 -2.790742 56.071274 3.760415 -17.874843 -30.557980 0.000000 -0.000000 0.000000 -3.188009 0.555082 26.669182 4.117581 -0.220631 -5.771320 0.553709 -1.431334 9.044778 3.404536 7.317527 11.554064 4.551306 -0.251002 1.054238 -7.857148 16.754449 9.731494 -35.654407 11.001145 9.541451 -28.021677 -55.713485 38.997144 7.852952 -9.876064 -17.601247 14.074696 -16.154482 3.710381 49.908651 -15.865249 11.966351 -1.951792 56.982178 14.648535 3.791252 7.991558 -12.311645 
0.622409 0.760908 0.854576 -94.813528 0.879750 102.220913 7.578034 -5.988602 -49.138445 -13.949583 0.970164 61.790039 6.028615 14.656604 -35.649598 0.000000 -0.000000 0.000000 -1.284674 6.874521 -52.439046 -0.115946 -3.640819 65.515167 4.084600 -17.964250 -33.319263 0.000000 -0.000000 0.000000 -3.803421 0.234888 29.617506 4.629169 0.200815 -7.070533 0.414954 -1.604823 9.195421 3.526563 7.435832 11.447961 4.137276 -0.624500 1.148095 -8.253195 18.407822 10.250266 -35.708507 11.844678 8.973976 -29.535741 -59.755406 40.990529 9.701402 -9.779042 -18.985979 15.449032 -16.924251 2.662582 49.822018 -14.400251 12.025202 -4.030187 59.104618 12.976852 3.021153 8.309717 -12.795742 
0.626057 0.760895 0.816472 -96.346231 0.741986 102.527225 9.053838 -4.753903 -54.566465 -13.807963 5.534941 70.316000 6.236440 14.465142 -39.084132 0.000000 -0.000000 0.000000 -2.547592 8.095011 -58.141601 -0.531336 -4.206902 73.863931 4.204742 -17.148923 -35.939023 0.000000 -0.000000 0.000000 -4.567354 0.114266 32.611920 4.927109 0.631933 -8.339900 0.138007 -1.976617 8.586197 3.706578 7.438697 11.689071 3.714568 -0.708652 1.421708 -9.767040 19.642094 10.665504 -36.732513 12.314834 7.901036 -27.704421 -64.356051 39.758908 11.579030 -9.306588 -20.015855 17.770928 -16.425318 1.617381 50.150404 -11.404462 11.936942 -7.927080 59.235629 9.094532 1.847239 8.638288 -13.125411 
0.626618 0.759437 0.782604 -98.955647 0.938057 103.278148 12.256675 -3.802769 -58.764637 -11.878292 11.367439 76.792872 6.084847 13.448014 -43.149381 0.000000 -0.000000 0.000000 -5.428872 10.795205 -63.573340 -1.021689 -6.285819 80.655004 4.478845 -16.411520 -37.623778 0.000000 -0.000000 0.000000 -5.486375 -0.489302 34.725317 4.681007 0.609524 -9.526505 0.067463 -2.363149 6.953502 2.957874 6.183792 14.123027 4.673351 1.728827 1.461487 -13.251001 18.386509 11.328790 -39.947456 14.417270 2.306264 -22.230862 -69.374676 33.640845 11.500691 -11.179893 -18.651539 20.663561 -12.007598 3.113318 51.799167 -6.833697 9.610093 -14.286622 56.402075 -0.044416 0.919730 9.244111 -9.920306 
0.623981 0.756911 0.757710 -102.902278 1.200542 102.602140 13.079765 -2.116251 -59.906506 -9.435183 14.024172 82.710697 5.375170 13.296585 -46.367802 0.000000 -0.000000 0.000000 -6.296504 13.109013 -66.273372 -1.537050 -6.218911 85.534299 4.228825 -14.961572 -38.941368 0.000000 -0.000000 0.000000 -6.381646 -1.318581 37.032469 3.999394 0.638094 -9.267307 -0.320624 -2.607894 5.296788 3.190580 5.724272 14.115107 4.305161 2.401822 2.710291 -17.626699 17.166020 10.921658 -43.069310 10.014268 0.784495 -3.298071 -71.527046 15.196384 14.198342 -10.789824 -20.484884 24.308969 -8.275582 3.851126 53.054639 1.333791 9.782094 -17.902017 51.177002 -5.936239 -4.119712 8.831060 -11.647847 
0.617507 0.753562 0.744412 -107.007758 0.954297 101.553818 12.823032 -1.759265 -59.161894 -6.201510 15.945019 86.673936 4.463187 14.222530 -47.779542 0.000000 -0.000000 0.000000 -6.846344 14.924972 -67.114408 -1.832288 -5.270066 88.633055 4.256836 -13.152718 -39.314962 0.000000 -0.000000 0.000000 -6.762904 -2.855749 38.975812 2.774069 -0.058434 -10.278245 -0.769480 -2.797260 4.176314 2.275844 5.153285 13.294947 5.048443 3.829163 3.956718 -22.426204 12.203063 10.257495 -43.564130 3.374205 0.873546 12.728016 -70.476901 -2.893510 15.510786 -11.283330 -20.911425 25.381539 -4.413899 4.562586 56.673728 5.134978 11.318314 -21.814306 51.628517 -11.878844 -7.771547 7.122421 -15.224372 
0.608401 0.750348 0.745147 -111.258708 0.205146 99.898318 11.292057 -1.966132 -55.989889 -3.818737 16.613549 87.768053 3.416775 14.425889 -47.798022 0.000000 -0.000000 0.000000 -6.325974 16.568315 -65.082465 -1.886845 -3.049613 89.294510 4.402645 -11.605243 -39.122599 0.000000 -0.000000 0.000000 -6.880434 -3.054393 39.354613 1.970990 -1.482610 -9.303615 -1.249751 -3.860310 2.676779 1.023398 5.633925 13.676862 6.205643 5.492472 4.730182 -26.079576 3.356903 9.481630 -41.150002 -4.856790 1.368197 22.544912 -69.663260 -13.107348 14.085797 -15.102254 -17.117196 24.692099 -1.849426 4.598834 59.731789 2.808348 13.796366 -26.684966 61.872010 -14.197766 -9.917746 7.246067 -19.872174 
0.595104 0.748095 0.762150 -114.782641 -0.442262 97.963157 9.166499 -2.376106 -50.882975 -2.557117 16.757913 85.800510 3.208594 14.743152 -45.364627 0.000000 -0.000000 0.000000 -5.150163 16.730615 -60.023839 -1.684385 -1.068429 86.539440 4.547455 -9.729018 -38.204257 0.000000 -0.000000 0.000000 -6.824279 -3.765756 38.450665 2.147294 -4.285415 -8.539636 -1.577403 -5.225003 2.260835 -1.243821 6.739137 12.338389 7.491494 6.263681 5.901892 -25.268359 -5.929535 8.615805 -39.819100 -14.287702 1.478516 32.206428 -70.996410 -22.831972 10.688802 -16.927289 -16.859226 22.724356 -1.810950 2.947782 62.179174 -3.049647 15.043451 -40.617725 75.235933 -17.892383 0.738668 11.416391 -15.013451 
0.578965 0.749466 0.797089 -119.225080 -0.319076 96.044395 7.117037 -1.199866 -43.972368 -2.631749 15.754288 80.456063 2.782858 15.179354 -41.188601 0.000000 -0.000000 0.000000 -2.405287 16.272865 -53.116264 -0.492940 1.469886 80.378976 4.376419 -8.196444 -34.637772 0.000000 -0.000000 0.000000 -7.666006 -4.818185 36.366514 3.180948 -7.815966 -8.719112 -0.974196 -6.862523 3.039812 -3.531196 7.749285 10.460453 8.750321 6.217395 6.488602 -19.296280 -12.444691 6.167620 -38.308871 -22.475108 1.888516 46.430314 -76.393143 -37.732675 13.079851 -15.801843 -20.762363 18.116662 -2.970683 0.287908 63.871753 -10.387023 16.832916 -109.150039 84.648288 -81.833645 3.202141 11.083220 -17.510506 
0.557561 0.755763 0.850939 -125.861715 0.691157 94.587988 5.783609 1.250143 -35.516908 -3.482140 13.780604 71.461978 1.654065 15.286078 -33.517759 0.000000 -0.000000 0.000000 0.670341 15.087631 -45.006571 1.279879 4.180603 70.358945 4.390785 -5.034985 -27.114057 0.000000 -0.000000 0.000000 -8.851490 -6.888694 32.816112 4.316101 -11.638787 -8.833006 0.068546 -8.507446 3.982361 -4.726494 8.105785 8.472111 9.185238 5.731015 7.097222 -10.689058 -14.702706 3.548281 -36.480767 -25.932817 2.292608 102.961386 -81.766060 -91.450469 12.583224 -16.895698 -24.803221 12.077046 -4.957307 -2.342277 64.183268 -16.598656 17.269927 -174.614719 77.939213 -146.664947 7.211870 13.312740 -26.876641 
